HIERARCHY
ROOT Hips
{
    OFFSET 0.000000 0.000000 0.000000
    CHANNELS 6 Xposition Yposition Zposition Zrotation Yrotation Xrotation
    JOINT LeftUpLeg
    {
        OFFSET 1.363060 -1.794630 0.839290
        CHANNELS 3 Zrotation Yrotation Xrotation
        JOINT LeftLeg
        {
            OFFSET 2.448110 -6.726130 0.000000
            CHANNELS 3 Zrotation Yrotation Xrotation
            JOINT LeftFoot
            {
                OFFSET 2.562200 -7.039589 0.000000
                CHANNELS 3 Zrotation Yrotation Xrotation
                JOINT LeftToeBase
                {
                    OFFSET 0.157640 -0.433110 2.322550
                    CHANNELS 3 Zrotation Yrotation Xrotation
                    End Site
                    {
                        OFFSET 0.000000 0.000000 0.000000
                    }
                }
            }
        }
    }
    JOINT RightUpLeg
    {
        OFFSET -1.305520 -1.794630 0.839290
        CHANNELS 3 Zrotation Yrotation Xrotation
        JOINT RightLeg
        {
            OFFSET -2.542530 -6.985549 0.000000
            CHANNELS 3 Zrotation Yrotation Xrotation
            JOINT RightFoot
            {
                OFFSET -2.568260 -7.056230 0.000000
                CHANNELS 3 Zrotation Yrotation Xrotation
                JOINT RightToeBase
                {
                    OFFSET -0.164730 -0.452590 2.363150
                    CHANNELS 3 Zrotation Yrotation Xrotation
                    End Site
                    {
                        OFFSET 0.000000 0.000000 0.000000
                    }
                }
            }
        }
    }
    JOINT Spine
    {
        OFFSET 0.028270 2.035590 -0.193380
        CHANNELS 3 Zrotation Yrotation Xrotation
        JOINT Spine1
        {
            OFFSET 0.056720 2.048850 -0.042750
            CHANNELS 3 Zrotation Yrotation Xrotation
            JOINT Neck1
            {
                OFFSET -0.054170 1.746240 0.172020
                CHANNELS 3 Zrotation Yrotation Xrotation
                JOINT Head
                {
                    OFFSET 0.104070 1.761360 -0.123970
                    CHANNELS 3 Zrotation Yrotation Xrotation
                    End Site
                    {
                        OFFSET 0.000000 0.000000 0.000000
                    }
                }
            }
            JOINT LeftShoulder
            {
                OFFSET 0.000000 0.000000 0.000000
                CHANNELS 3 Zrotation Yrotation Xrotation
                JOINT LeftArm
                {
                    OFFSET 3.362410 1.200890 -0.311210
                    CHANNELS 3 Zrotation Yrotation Xrotation
                    JOINT LeftForeArm
                    {
                        OFFSET 4.983000 -0.000000 -0.000000
                        CHANNELS 3 Zrotation Yrotation Xrotation
                        JOINT LeftHand
                        {
                            OFFSET 3.483560 -0.000000 -0.000000
                            CHANNELS 3 Zrotation Yrotation Xrotation
                            End Site
                            {
                                OFFSET 0.000000 0.000000 0.000000
                            }
                        }
                    }
                }
            }
            JOINT RightShoulder
            {
                OFFSET 0.000000 0.000000 0.000000
                CHANNELS 3 Zrotation Yrotation Xrotation
                JOINT RightArm
                {
                    OFFSET -3.136600 1.374050 -0.404650
                    CHANNELS 3 Zrotation Yrotation Xrotation
                    JOINT RightForeArm
                    {
                        OFFSET -5.241900 -0.000000 -0.000000
                        CHANNELS 3 Zrotation Yrotation Xrotation
                        JOINT RightHand
                        {
                            OFFSET -3.444170 -0.000000 -0.000000
                            CHANNELS 3 Zrotation Yrotation Xrotation
                            End Site
                            {
                                OFFSET 0.000000 0.000000 0.000000
                            }
                        }
                    }
                }
            }
        }
    }
}
MOTION
Frames: 9
Frame Time: 0.016667
20.205278 17.821169 9.970554 0.520805 -3.934615 8.043509 -11.108378 -0.247865 -17.682365 -18.499962 -29.954126 42.534733 -25.051783 40.880547 -32.824356 -1.029696 0.999418 -7.221696 7.943635 1.279470 -17.865927 23.755676 29.970980 48.904751 21.191702 -45.522831 -34.586796 -0.140190 -0.482335 -3.447694 2.048298 0.461921 -4.843657 -0.811282 0.073392 1.065573 4.202679 -12.104316 21.117367 -0.819189 -9.972016 -0.987533 -6.278059 2.405991 2.410058 -31.987474 -0.043108 10.949948 10.858886 -2.156325 -57.594784 1.526924 -5.431677 -57.702518 6.841525 -1.945281 1.796578 30.728916 -4.208709 6.882813 -6.032333 -0.488273 -46.291988 -2.054513 3.522085 -46.767414 
20.198195 17.829369 9.977296 0.493918 -3.849340 8.152410 -11.223794 -0.337569 -17.499531 -18.011131 -30.212160 42.084755 -24.913713 40.988316 -32.631752 -1.013790 0.968789 -7.109591 8.081688 1.125286 -17.738535 22.267212 29.312899 47.425404 21.000854 -44.264881 -33.718006 -0.127764 -0.435889 -3.640647 1.976626 0.503576 -4.820595 -0.829712 0.094973 1.063547 4.348393 -11.352604 21.080547 -0.732518 -9.216219 -1.493906 -6.303844 2.446739 2.412713 -32.122459 -0.049654 10.839986 10.852357 -2.295336 -57.374840 1.082258 -6.045768 -57.435333 6.873442 -1.994194 1.806808 30.991690 -4.252076 6.709863 -5.872521 -0.590041 -46.317093 -2.490927 3.080539 -46.793362 
20.193098 17.838129 9.985129 0.461654 -3.798952 8.281324 -11.186610 -0.603624 -17.339148 -17.801506 -30.392847 41.733116 -25.016851 41.154613 -32.547424 -1.007730 1.019387 -7.091162 8.034571 1.468358 -17.504948 21.332632 28.750828 46.213161 21.052078 -43.723083 -33.247650 -0.121003 -0.410276 -3.684417 1.946205 0.549065 -4.786965 -0.861588 0.118446 1.060273 4.416905 -10.464786 20.919563 -0.400116 -8.374376 -1.833605 -6.340787 2.485938 2.372908 -32.159904 0.063044 10.038232 10.636826 -2.545795 -57.276756 1.001780 -5.958988 -57.224571 6.880835 -2.017711 1.861252 31.323586 -4.220283 6.594092 -5.814689 -0.697259 -46.297176 -2.484590 2.832926 -46.778217 
20.183039 17.841276 9.998331 0.376174 -3.794353 8.307589 -11.209608 -0.380662 -17.284098 -17.185528 -30.267086 41.185272 -24.710106 40.659531 -31.741562 -0.951183 1.322992 -6.857697 8.167494 1.549070 -17.293982 20.041409 27.972004 44.879501 21.017496 -42.614586 -32.297276 -0.117604 -0.397349 -3.676591 1.886033 0.650919 -4.669528 -0.834484 0.174197 1.053321 4.423049 -9.509617 20.941002 0.257806 -7.461902 -2.660225 -6.327222 2.551857 2.377995 -32.289680 0.072970 9.894861 10.629827 -2.583570 -57.311661 1.197736 -5.805506 -57.248028 6.961334 -2.033524 1.850139 31.568991 -4.295623 6.723216 -5.745229 -0.714987 -46.185516 -2.130325 3.131096 -46.677044 
20.178387 17.854240 10.006189 0.402021 -3.819555 8.593653 -11.273396 -0.674250 -17.332747 -18.089493 -31.531334 42.087379 -25.141031 42.157410 -32.664875 -0.912487 1.493662 -6.687345 8.277864 1.192833 -17.619421 19.823839 28.231075 44.762222 21.046627 -42.321770 -32.015503 -0.122072 -0.414382 -3.711865 1.811185 0.763735 -4.765134 -0.852692 0.230809 1.048620 4.522999 -8.490005 20.828003 0.588305 -6.457355 -3.353756 -6.298917 2.592202 2.386696 -32.411831 0.175014 9.849660 10.734695 -2.467118 -57.364983 1.541128 -5.515347 -57.343395 6.963206 -2.035555 1.868553 31.828867 -4.340477 7.397544 -5.813087 -0.825715 -46.627270 -2.401148 2.838968 -47.147461 
20.172997 17.856970 10.020694 0.375909 -3.840482 8.735382 -11.364806 -0.523802 -17.335640 -17.689833 -31.714092 41.742836 -25.230341 42.142685 -32.138550 -0.956704 1.580814 -6.992033 8.151763 1.628946 -17.420973 19.209187 27.758677 43.810162 21.339571 -41.971226 -31.542614 -0.088180 -0.285351 -3.730019 1.822738 0.861836 -4.742493 -0.883132 0.278725 1.067012 4.585196 -7.501338 20.668200 0.892484 -5.477410 -3.883585 -6.286408 2.662227 2.398954 -32.467861 0.256498 9.736780 10.784160 -2.524458 -57.319801 1.456872 -5.540672 -57.276077 6.969796 -2.056288 1.897586 31.942844 -4.332119 7.099941 -5.678436 -0.848404 -46.395496 -2.403541 2.833338 -46.908974 
20.162743 17.859692 10.040712 0.377154 -3.834914 8.861212 -11.330941 -0.651863 -17.159040 -16.437672 -30.923637 40.313950 -25.394396 41.113419 -31.216539 -0.971653 1.297885 -6.974581 8.184247 1.524140 -17.438278 18.239031 27.128347 42.761230 21.206699 -41.112747 -30.311865 -0.131009 -0.447809 -3.482453 1.763582 0.981595 -4.745231 -0.888614 0.339837 1.032097 4.700918 -6.537468 20.546375 1.139548 -4.511151 -4.304066 -6.196819 2.651542 2.442021 -32.618183 0.358032 10.186895 10.985665 -2.509039 -57.646114 0.955181 -5.721198 -57.602852 6.931568 -1.999343 1.810821 32.130638 -4.647324 6.998541 -5.682933 -0.714104 -46.472412 -2.491037 2.823412 -46.955391 
20.154247 17.860760 10.061397 0.371957 -3.875959 8.976631 -11.222854 -1.048483 -16.932869 -15.952016 -30.619917 39.657837 -25.749895 41.066723 -31.027401 -1.000096 1.296958 -7.150494 8.304214 1.203188 -17.572208 17.804358 27.038181 42.429588 21.392941 -40.503948 -29.849119 -0.153200 -0.531655 -3.498401 1.733934 1.045215 -4.770981 -0.866675 0.371447 1.113219 4.972911 -5.612916 20.275637 0.668402 -3.554725 -4.435231 -6.173686 2.762217 2.439683 -32.554253 0.515137 9.549122 10.900525 -2.504875 -57.414051 1.033865 -5.745421 -57.362858 6.896905 -2.124360 1.975246 32.281094 -4.297151 6.966776 -5.698179 -0.881010 -46.278103 -2.171700 3.110798 -46.804611 
20.142792 17.855530 10.088278 0.285413 -3.883641 9.023187 -10.988501 -1.375597 -16.685795 -15.136293 -29.945374 38.630249 -26.150513 40.585915 -30.258646 -0.967784 0.905138 -6.793570 8.370276 1.360717 -17.407120 17.116915 26.459700 41.649963 21.621469 -39.804108 -29.312593 -0.141045 -0.485433 -3.414660 1.748523 1.204225 -4.736415 -0.835615 0.453847 1.065073 5.344167 -4.829426 20.244598 0.138881 -2.692868 -4.830816 -6.123058 2.756426 2.492301 -32.679523 0.638153 9.836691 11.157714 -2.417102 -57.691753 1.106081 -5.534345 -57.676849 6.830567 -2.091670 1.838901 32.562805 -4.641444 7.194691 -5.870469 -0.850515 -46.344894 -2.068757 3.150565 -46.872395 
